<?xml version="1.0" encoding="UTF-8"?>
<svg xmlns="http://www.w3.org/2000/svg" xmlns:xlink="http://www.w3.org/1999/xlink" xmlns:svgjs="http://svgjs.com/svgjs" version="1.1" width="512" height="512" x="0" y="0" viewBox="0 0 480 480" style="enable-background:new 0 0 512 512" xml:space="preserve"><g transform="matrix(0.9500000000000001,0,0,0.9500000000000001,11.999609374999949,11.999999809265091)"><path d="m239.992188 144c-53.019532 0-96 42.980469-96 96s42.980468 96 96 96c53.019531 0 96-42.980469 96-96-.058594-52.996094-43.003907-95.941406-96-96zm0 176c-44.183594 0-80-35.816406-80-80s35.816406-80 80-80c44.183593 0 80 35.816406 80 80-.050782 44.164062-35.835938 79.953125-80 80zm0 0" fill="#f15b40" data-original="#000000"/><path d="m375.992188 296h24.800781c4.105469 20.121094 22.78125 33.863281 43.210937 31.796875 20.429688-2.0625 35.980469-19.261719 35.980469-39.796875s-15.550781-37.734375-35.980469-39.796875c-20.429687-2.066406-39.105468 11.675781-43.210937 31.796875h-16.800781v-40c0-4.417969-3.582032-8-8-8h-16.410157c-1.765625-26.730469-12.472656-52.09375-30.398437-72h55.609375c4.105469 20.121094 22.78125 33.863281 43.210937 31.796875 20.429688-2.0625 35.980469-19.261719 35.980469-39.796875s-15.550781-37.734375-35.980469-39.796875c-20.429687-2.066406-39.105468 11.675781-43.210937 31.796875h-72.800781v.222656c-2.59375-1.949218-5.25-3.816406-8-5.597656v-18.625h48c4.417968 0 8-3.582031 8-8v-64h40.800781c4.105469 20.121094 22.78125 33.863281 43.210937 31.796875 20.429688-2.0625 35.980469-19.261719 35.980469-39.796875s-15.550781-37.734375-35.980469-39.796875c-20.429687-2.066406-39.105468 11.675781-43.210937 31.796875h-48.800781c-4.417969 0-8 3.582031-8 8v64h-48c-4.417969 0-8 3.582031-8 8v18.089844c-15.128907-6.652344-31.472657-10.089844-48-10.089844-2.703126 0-5.34375.230469-8 .40625v-72.40625h8.800781c4.105469 20.121094 22.78125 33.863281 43.210937 31.796875 20.429688-2.0625 35.980469-19.261719 35.980469-39.796875s-15.550781-37.734375-35.980469-39.796875c-20.429687-2.066406-39.105468 11.675781-43.210937 31.796875h-16.800781c-4.417969 0-8 3.582031-8 8v82.398438c-2.71875.554687-5.351563 1.3125-8 2.050781v-20.449219c0-4.417969-3.582032-8-8-8h-56v-56c0-4.417969-3.582032-8-8-8h-56.800782c-4.105468-20.121094-22.78125-33.863281-43.210937-31.796875-20.429688 2.0625-35.980469 19.261719-35.980469 39.796875s15.550781 37.734375 35.980469 39.796875c20.429687 2.066406 39.105469-11.675781 43.210937-31.796875h48.800782v56c0 4.417969 3.582031 8 8 8h56v18.089844c-30.367188 13.359375-53.882813 38.652344-65 69.910156h-63v-8.800781c20.121093-4.105469 33.859374-22.78125 31.796874-43.210938-2.0625-20.429687-19.261718-35.980469-39.796874-35.980469-20.535157 0-37.734376 15.550782-39.796876 35.980469-2.066406 20.429688 11.675782 39.105469 31.796876 43.210938v16.800781c0 4.417969 3.582031 8 8 8h66.398437c-1.023437 5.28125-1.695313 10.628906-2.007813 16h-16.390624c-4.417969 0-8 3.582031-8 8v40h-16.800782c-4.105468-20.121094-22.78125-33.863281-43.210937-31.796875-20.429688 2.0625-35.980469 19.261719-35.980469 39.796875s15.550781 37.734375 35.980469 39.796875c20.429687 2.066406 39.105469-11.675781 43.210937-31.796875h24.800782c4.417968 0 8-3.582031 8-8v-40h8.40625c1.765624 26.730469 12.476562 52.09375 30.402343 72h-22.808593c-4.417969 0-8 3.582031-8 8v104h-40.800782c-4.105468-20.121094-22.78125-33.863281-43.210937-31.796875-20.429688 2.0625-35.980469 19.261719-35.980469 39.796875s15.550781 37.734375 35.980469 39.796875c20.429687 2.066406 39.105469-11.675781 43.210937-31.796875h48.800782c4.417968 0 8-3.582031 8-8v-104h32v-.222656c20.714843 15.710937 46 24.214844 72 24.222656v8h-24c-4.417969 0-8 3.582031-8 8v24.800781c-20.121094 4.105469-33.863282 22.78125-31.796876 43.210938 2.0625 20.429687 19.261719 35.980469 39.796876 35.980469 20.535156 0 37.734374-15.550782 39.796874-35.980469 2.0625-20.429688-11.675781-39.105469-31.796874-43.210938v-16.800781h24c4.417968 0 8-3.582031 8-8v-17.191406c20.335937-2.734375 39.625-10.667969 56-23.03125v.222656h24v104c0 4.417969 3.582031 8 8 8h56.800781c4.105469 20.121094 22.78125 33.863281 43.210937 31.796875 20.429688-2.0625 35.980469-19.261719 35.980469-39.796875s-15.550781-37.734375-35.980469-39.796875c-20.429687-2.066406-39.105468 11.675781-43.210937 31.796875h-48.800781v-104c0-4.417969-3.582032-8-8-8h-14.808594c17.925781-19.90625 28.632812-45.269531 30.398437-72h8.410157v40c0 4.417969 3.582031 8 8 8zm64-32c13.253906 0 24 10.746094 24 24s-10.746094 24-24 24c-13.253907 0-24-10.746094-24-24s10.746093-24 24-24zm-16-136c13.253906 0 24 10.746094 24 24s-10.746094 24-24 24c-13.253907 0-24-10.746094-24-24s10.746093-24 24-24zm16-112c13.253906 0 24 10.746094 24 24s-10.746094 24-24 24c-13.253907 0-24-10.746094-24-24s10.746093-24 24-24zm-160 0c13.253906 0 24 10.746094 24 24s-10.746094 24-24 24c-13.253907 0-24-10.746094-24-24s10.746093-24 24-24zm-240 48c-13.253907 0-24-10.746094-24-24s10.746093-24 24-24c13.253906 0 24 10.746094 24 24s-10.746094 24-24 24zm-8 88c0-13.253906 10.746093-24 24-24 13.253906 0 24 10.746094 24 24s-10.746094 24-24 24c-13.253907 0-24-10.746094-24-24zm8 160c-13.253907 0-24-10.746094-24-24s10.746093-24 24-24c13.253906 0 24 10.746094 24 24s-10.746094 24-24 24zm0 152c-13.253907 0-24-10.746094-24-24s10.746093-24 24-24c13.253906 0 24 10.746094 24 24s-10.746094 24-24 24zm200-24c0 13.253906-10.746094 24-24 24-13.253907 0-24-10.746094-24-24s10.746093-24 24-24c13.253906 0 24 10.746094 24 24zm200-24c13.253906 0 24 10.746094 24 24s-10.746094 24-24 24c-13.253907 0-24-10.746094-24-24s10.746093-24 24-24zm-200-72c-57.4375 0-104-46.5625-104-104s46.5625-104 104-104 104 46.5625 104 104c-.066407 57.410156-46.589844 103.933594-104 104zm0 0" fill="#f15b40" data-original="#000000"/></g></svg>